<svg width="112" height="30" viewBox="0 0 112 30" fill="none" xmlns="http://www.w3.org/2000/svg">
<path fill-rule="evenodd" clip-rule="evenodd" d="M55.3804 28.6514C55.1139 29.4607 54.6573 29.7855 54.0106 29.626L50.2941 29.3151C49.9168 29.2086 49.6471 29.0478 49.4848 28.8328C49.3226 28.6178 49.3486 28.3483 49.5629 28.0242C50.5264 26.2965 51.2209 24.6506 51.6464 23.0864C52.072 21.5221 52.281 19.6083 52.2734 17.345C52.2619 13.8961 51.3102 11.097 49.4184 8.94777C47.4725 6.7448 45.0188 5.64827 42.0573 5.65818C40.3342 5.66395 38.7477 6.26204 37.2978 7.45247C35.8478 8.589 34.4799 10.1564 33.1943 12.1546C32.508 13.1923 31.831 14.2574 31.1631 15.3499L38.6217 19.1176L38.4709 8.62818C38.4661 8.2929 38.6312 8.12285 38.9662 8.11803L40.2225 8.09994C40.5575 8.09511 40.7274 8.26034 40.7322 8.59562L40.9073 20.7734C40.9107 21.0128 40.9015 21.2046 40.8796 21.3486C40.8814 21.4684 40.8469 21.5647 40.7761 21.6376C40.7289 21.6861 40.6457 21.7233 40.5264 21.7489L38.8753 21.7727C38.7078 21.7751 38.5515 21.7295 38.4066 21.6358L29.9743 17.3401C29.896 17.4743 29.8178 17.6088 29.7398 17.7437C28.6155 19.6875 27.4102 21.5508 26.1238 23.3334C24.7836 25.1163 23.1734 26.6845 21.2933 28.038C19.413 29.3376 17.2344 29.9916 14.7575 29.9999C12.3344 30.008 10.206 29.584 8.37238 28.7279C6.4847 27.8181 4.9191 26.6108 3.6756 25.1061C2.37807 23.5476 1.45647 21.6915 0.910808 19.5377C0.311299 17.3842 0.00776391 15.1757 0.000202312 12.9124C-0.00519875 11.2957 0.0975428 9.81337 0.308427 8.46542C0.519129 7.06359 0.97142 5.44538 1.6653 3.61081C1.87817 2.85564 2.30786 2.53087 2.95437 2.63648L6.18731 3.27234C7.04939 3.43113 7.29314 3.86143 6.91855 4.56325C6.27708 5.96652 5.82398 7.34223 5.55925 8.69035C5.29452 10.0385 5.16467 11.467 5.16971 12.9759C5.17529 14.6464 5.3959 16.2085 5.83153 17.6621C6.21331 19.1158 6.78266 20.2995 7.53957 21.2131C8.2963 22.0728 9.24113 22.8241 10.3741 23.467C11.5068 24.056 12.8809 24.3477 14.4963 24.3423C15.7886 24.338 16.999 24.0106 18.1276 23.3602C19.2563 22.7097 20.33 21.7631 21.349 20.5202C22.3677 19.2234 23.2252 18.008 23.9214 16.874C24.304 16.2211 24.7029 15.5518 25.1179 14.8661L18.5151 11.5025L18.6545 21.2016C18.6594 21.5368 18.4943 21.7069 18.1593 21.7117L16.9389 21.7293C16.6039 21.7341 16.4339 21.5689 16.4291 21.2336L16.267 9.95394C16.2597 9.45102 16.3035 9.16296 16.3981 9.08973C16.4686 8.99291 16.755 8.94087 17.2575 8.93364L18.0113 8.92278C18.3463 8.91796 18.6466 8.99747 18.9123 9.16132L26.3219 12.9043C27.3402 11.2675 28.3343 9.72855 29.3044 8.28756C30.3222 6.72136 31.4483 5.31646 32.6826 4.07286C33.8629 2.77556 35.2327 1.77402 36.7919 1.06824C38.2972 0.362632 40.0192 0.00658691 41.9576 0.000100461C44.4345 -0.00818778 46.6439 0.496372 48.5858 1.51378C50.4737 2.47747 52.0394 3.7117 53.2829 5.21645C54.5801 6.66713 55.5824 8.52297 56.29 10.784C57.0512 12.9909 57.4358 15.2799 57.4437 17.651C57.4511 19.8605 57.296 21.801 56.9785 23.4727C56.6609 25.0904 56.1282 26.8167 55.3804 28.6514ZM62.9046 26.5787C62.5675 26.9149 62.3985 27.3169 62.3977 27.7847C62.3969 28.2525 62.5644 28.6551 62.9004 28.9925C63.2363 29.3299 63.638 29.499 64.1054 29.4998C64.5728 29.5007 64.9657 29.333 65.2842 28.9967C65.6213 28.6605 65.7903 28.2585 65.7911 27.7907C65.792 27.3229 65.6244 26.9203 65.2885 26.5829C64.9712 26.2456 64.5789 26.0765 64.1115 26.0756C63.6441 26.0748 63.2418 26.2425 62.9046 26.5787ZM83.0667 27.9056C83.3285 27.9061 83.4596 27.7847 83.46 27.5415L83.4955 7.52944C83.4959 7.28619 83.3653 7.16433 83.1035 7.16387L82.0098 7.16192C81.748 7.16146 81.6169 7.28285 81.6165 7.5261L81.6017 15.8902C81.2477 15.1598 80.7346 14.5601 80.0624 14.0911C79.4088 13.6222 78.6146 13.3869 77.6798 13.3852C75.9223 13.3821 74.5561 14.1188 73.5813 15.5952C72.6065 17.053 72.1175 18.6613 72.1144 20.4202C72.1126 21.4119 72.2138 22.3571 72.4178 23.2556C72.6406 24.1541 73.0037 24.9968 73.5071 25.7836C74.0106 26.5517 74.6078 27.1421 75.2989 27.555C76.0086 27.9679 76.7935 28.1752 77.6535 28.1767C79.5045 28.18 80.8149 27.2841 81.5846 25.4892L81.581 27.5381C81.5806 27.7814 81.7112 27.9032 81.973 27.9037L83.0667 27.9056ZM74.2699 22.6414C74.1402 21.9488 74.0853 21.3125 74.105 20.7325C74.0873 20.1898 74.1351 19.5724 74.2485 18.8803C74.3807 18.1695 74.6062 17.515 74.9251 16.9168C75.244 16.3186 75.6375 15.8421 76.1055 15.4875C76.5736 15.1328 77.1535 14.956 77.8453 14.9573C78.537 14.9585 79.1163 15.1373 79.5831 15.4936C80.0499 15.85 80.4323 16.3278 80.7304 16.9271C81.0472 17.5264 81.2611 18.1817 81.372 18.893C81.4829 19.5855 81.5379 20.2031 81.537 20.7457C81.5359 21.3258 81.4787 21.9619 81.3653 22.654C81.2519 23.3274 81.0358 23.9726 80.7168 24.5895C80.4166 25.1877 80.0325 25.6642 79.5644 26.0189C79.0964 26.3736 78.5165 26.5503 77.8247 26.5491C77.1329 26.5478 76.5536 26.3691 76.0869 26.0127C75.6201 25.6564 75.2283 25.1785 74.9115 24.5792C74.6134 23.9612 74.3996 23.3152 74.2699 22.6414ZM95.7042 18.2168C95.8527 18.8158 95.9265 19.4053 95.9255 19.9854L88.4094 19.972C88.429 19.4669 88.5234 18.9244 88.6927 18.3446C88.862 17.7649 89.1061 17.204 89.4249 16.6619C90.1186 15.5591 91.0731 15.0088 92.2884 15.011C93.5037 15.0132 94.4376 15.5575 95.09 16.6439C95.3697 17.0935 95.5744 17.6178 95.7042 18.2168ZM88.6835 23.5371C88.4604 22.8257 88.3587 22.1706 88.3785 21.5718L97.5773 21.5882C97.7269 21.5697 97.8298 21.5325 97.886 21.4765C97.9422 21.4204 97.9704 21.3363 97.9705 21.224C97.9895 21.0931 97.9991 20.9153 97.9995 20.6908C98.0034 18.5389 97.539 16.8354 96.6064 15.58C96.0841 14.8493 95.4868 14.3056 94.8144 13.9489C94.1606 13.5922 93.3289 13.413 92.3193 13.4112C90.6927 13.4083 89.2705 14.1262 88.0526 15.5648C86.8907 17.0971 86.3079 18.8924 86.3043 20.9507C86.3002 23.2148 86.886 25.0215 88.0615 26.3708C89.237 27.7014 90.8251 28.3685 92.8256 28.3721C93.6109 28.3734 94.2747 28.3185 94.8171 28.2072C95.3782 28.0959 95.9487 27.9285 96.5287 27.705C96.7346 27.6118 96.8376 27.4904 96.8379 27.3407L96.8402 26.0496C96.8219 25.825 96.7005 25.7593 96.4759 25.8525C95.9145 26.1509 95.3532 26.365 94.7921 26.495C94.231 26.625 93.6232 26.6894 92.9688 26.6883C92.2209 26.6869 91.5855 26.5548 91.0625 26.2919C90.5394 26.029 90.0726 25.682 89.662 25.2509C89.2515 24.8011 88.9253 24.2299 88.6835 23.5371ZM106.737 27.9477C107.017 27.9482 107.204 27.8269 107.298 27.5838L111.977 14.2882C112.015 14.1947 112.006 14.1105 111.95 14.0355C111.894 13.9419 111.81 13.8949 111.698 13.8947L110.464 13.8925C110.351 13.8923 110.249 13.9296 110.155 14.0043C110.061 14.0789 109.996 14.1724 109.958 14.2846L106.095 26.0099L102.442 14.2712C102.33 14.0091 102.162 13.8778 101.938 13.8774L100.704 13.8752C100.592 13.875 100.508 13.9216 100.451 14.0151C100.395 14.0898 100.386 14.174 100.423 14.2676L104.83 27.5794C104.905 27.8228 105.082 27.9448 105.363 27.9453L106.737 27.9477Z" fill="white"/>
</svg>
